# xmcd CD database file
#
# Track frame offsets:
#	150
#	14244
#	31868
#	43382
#	56581
#	68800
#	83123
#	94821
#	114128
#	128377
#	141276
#
# Disc length: 2167 seconds
#
# Revision: 0
# Processed by: cddbd v1.5.1PL0 Copyright (c) Steve Scherf et al.
# Submitted via: CDex 1.50
#
DISCID=9108750b
DTITLE=Riders Of Circle B - Greener Pastures
DYEAR=2005
DGENRE=Country
TTITLE0=Cowboy's Sweetheart and Payday
TTITLE1=Ride The River
TTITLE2=They Call The Wind Mariah
TTITLE3=Navajo Trail
TTITLE4=San Antonio Rose and Back In the Saddle
TTITLE5=Greener Pastures
TTITLE6=Cimarron and Cattle Call
TTITLE7=The Streets Of Laredo and Oh Bury Me Not
TTITLE8=Git Along Little Doggies Medley
TTITLE9=Fernando
TTITLE10=Will The Circle Be Unbroken
EXTD=YEAR: 2005
EXTT0=
EXTT1=
EXTT2=
EXTT3=
EXTT4=
EXTT5=
EXTT6=
EXTT7=
EXTT8=
EXTT9=
EXTT10=
PLAYORDER=
